<?xml version="1.0" encoding="UTF-8"?>
<svg width="536px" height="318px" viewBox="0 0 536 318" version="1.1" xmlns="http://www.w3.org/2000/svg" xmlns:xlink="http://www.w3.org/1999/xlink">
    <title>Artboard@1x</title>
    <g id="Artboard" stroke="none" stroke-width="1" fill="none" fill-rule="evenodd">
        <rect fill="#000000" x="0" y="0" width="536" height="318"></rect>
        <g id="Group-9-Copy" transform="translate(68, 75)">
            <path d="M29.4213717,125.902173 C37.4920396,108.216205 24.653135,99.2892822 13.8852827,87.8237706 C10.7405566,92.1678042 11.382033,98.038051 11.8355419,103.070177 C13.7795776,113.063452 22.7815584,118.935398 29.4213717,125.902173 M14.5608575,43.7497437 C6.64235372,61.158604 19.2932908,71.0753769 30.4647831,82.2846071 C38.1522701,65.0177004 25.7992678,54.7541189 14.5608575,43.7497437 M12.9778387,87.8900723 C-1.86818369,74.7555439 -4.28831849,54.5913398 14.3660703,43.7008675 C-1.31493696,31.8893972 -3.30798914,9.65624141 15.4499736,0 C5.12071209,22.3355834 31.2064235,33.7067427 41.2403075,49.4648616 C47.6695631,61.3286082 42.3796207,76.3884347 30.4042584,82.4269857 C46.7429388,93.9949249 47.8208748,116.057651 29.5952736,126.299982 C45.40074,137.545339 47.0310703,160.370534 28.7551739,170 C37.9711223,148.525913 15.7768921,137.20363 4.3773667,122.934323 C-4.25933484,111.467112 0.54939372,94.3825346 12.9778387,87.8900723" id="Fill-1" fill="#FDFDFD"></path>
            <path d="M29.4213717,125.902173 C37.4920396,108.216205 24.653135,99.2892822 13.8852827,87.8237706 C10.7405566,92.1678042 11.382033,98.038051 11.8355419,103.070177 C13.7795776,113.063452 22.7815584,118.935398 29.4213717,125.902173 Z M14.5608575,43.7497437 C6.64235372,61.158604 19.2932908,71.0753769 30.4647831,82.2846071 C38.1522701,65.0177004 25.7992678,54.7541189 14.5608575,43.7497437 Z M12.9778387,87.8900723 C-1.86818369,74.7555439 -4.28831849,54.5913398 14.3660703,43.7008675 C-1.31493696,31.8893972 -3.30798914,9.65624141 15.4499736,0 C5.12071209,22.3355834 31.2064235,33.7067427 41.2403075,49.4648616 C47.6695631,61.3286082 42.3796207,76.3884347 30.4042584,82.4269857 C46.7429388,93.9949249 47.8208748,116.057651 29.5952736,126.299982 C45.40074,137.545339 47.0310703,160.370534 28.7551739,170 C37.9711223,148.525913 15.7768921,137.20363 4.3773667,122.934323 C-4.25933484,111.467112 0.54939372,94.3825346 12.9778387,87.8900723 Z" id="Stroke-3" stroke="#000000"></path>
            <path d="M14.3831187,43 C25.2056568,54.128601 37.1023219,64.5461795 29.6983563,82 C18.937795,70.6589094 6.75792481,60.6047999 14.3831187,43 Z" id="Stroke-5" stroke="#000000"></path>
            <path d="M29.5258593,126 C23.0501109,119.049691 14.2663767,113.186017 12.3712588,103.215439 C11.9284549,98.191553 11.3039557,92.3372101 14.3707371,88 C24.8732991,99.4283323 37.4015334,108.380137 29.5258593,126 Z" id="Stroke-7" stroke="#000000"></path>
        </g>
        <text id="All-My-DNA-Copy" font-family="SFPro-Medium, SF Pro" font-size="60" font-weight="400" fill="#FFFFFF">
            <tspan x="171" y="182">All My DNA</tspan>
        </text>
        <line x1="141.5" y1="35.5" x2="141.5" y2="285.5" id="Line-Copy" stroke="#979797" stroke-width="3" stroke-linecap="square"></line>
    </g>
</svg>