<?xml version="1.0" encoding="UTF-8"?>
<svg width="208px" height="103px" viewBox="0 0 208 103" version="1.1" xmlns="http://www.w3.org/2000/svg" xmlns:xlink="http://www.w3.org/1999/xlink">
    <title>Desktop_logo</title>
    <g id="Page-1" stroke="none" stroke-width="1" fill="none" fill-rule="evenodd">
        <g id="Extra-Large-Copy" transform="translate(-786, -419)">
            <g id="Desktop_logo" transform="translate(787, 420.5)">
                <g id="Group-9" transform="translate(0, 12.5)">
                    <path d="M12.9800169,55.5450761 C16.5406057,47.7424436 10.8763831,43.8040951 6.12586,38.7457811 C4.73848086,40.6622666 5.02148515,43.2520813 5.22156259,45.4721368 C6.07922541,49.8809345 10.0506875,52.4714993 12.9800169,55.5450761 M6.4239077,19.3013575 C2.93045017,26.981737 8.51174595,31.3567839 13.4403455,36.3020326 C16.8318839,28.6842796 11.3820299,24.1562289 6.4239077,19.3013575 M5.72551707,38.7750319 C-0.824198689,32.980387 -1.89190522,24.0844146 6.33797218,19.2797945 C-0.580119247,14.0688517 -1.45940698,4.2601065 6.8161648,0 C2.25913768,9.85393385 13.7675398,14.8706218 18.1942533,21.8227331 C21.0306896,27.0567389 18.6968915,33.70078 13.4136434,36.3648466 C20.6218847,41.4683492 21.0974448,51.201905 13.0567383,55.7205805 C20.0297382,60.681767 20.7490016,70.7517063 12.6861061,75 C16.7519657,65.5261382 6.96039357,60.5310133 1.93119119,54.2357309 C-1.87911831,49.1766669 0.242379582,41.6393535 5.72551707,38.7750319" id="Fill-1" fill="#FDFDFD"></path>
                    <path d="M12.9800169,55.5450761 C16.5406057,47.7424436 10.8763831,43.8040951 6.12586,38.7457811 C4.73848086,40.6622666 5.02148515,43.2520813 5.22156259,45.4721368 C6.07922541,49.8809345 10.0506875,52.4714993 12.9800169,55.5450761 Z M6.4239077,19.3013575 C2.93045017,26.981737 8.51174595,31.3567839 13.4403455,36.3020326 C16.8318839,28.6842796 11.3820299,24.1562289 6.4239077,19.3013575 Z M5.72551707,38.7750319 C-0.824198689,32.980387 -1.89190522,24.0844146 6.33797218,19.2797945 C-0.580119247,14.0688517 -1.45940698,4.2601065 6.8161648,0 C2.25913768,9.85393385 13.7675398,14.8706218 18.1942533,21.8227331 C21.0306896,27.0567389 18.6968915,33.70078 13.4136434,36.3648466 C20.6218847,41.4683492 21.0974448,51.201905 13.0567383,55.7205805 C20.0297382,60.681767 20.7490016,70.7517063 12.6861061,75 C16.7519657,65.5261382 6.96039357,60.5310133 1.93119119,54.2357309 C-1.87911831,49.1766669 0.242379582,41.6393535 5.72551707,38.7750319 Z" id="Stroke-3" stroke="#000000"></path>
                    <path d="M6.34549354,18.9705882 C11.1201427,23.8802652 16.3686714,28.4762556 13.102216,36.1764706 C8.35490956,31.1730483 2.98143742,26.7374117 6.34549354,18.9705882 Z" id="Stroke-5" stroke="#000000"></path>
                    <path d="M13.0261144,55.5882353 C10.1691666,52.5219224 6.29398973,49.9350075 5.45790831,45.5362229 C5.26255361,43.3198028 4.98703929,40.7370044 6.34003107,38.8235294 C10.9735143,43.8654407 16.5006765,47.8147664 13.0261144,55.5882353 Z" id="Stroke-7" stroke="#000000"></path>
                </g>
                <text id="All-My-DNA" font-family="SFPro-Medium, SF Pro" font-size="30" font-weight="400" fill="#FFFFFF">
                    <tspan x="56" y="60.5">All My DNA</tspan>
                </text>
                <line x1="37.5" y1="5.25190642e-15" x2="37.5" y2="100" id="Line" stroke="#FFFFFF" stroke-width="3" stroke-linecap="square"></line>
            </g>
        </g>
    </g>
</svg>