<?xml version="1.0" encoding="UTF-8"?>
<svg width="207px" height="103px" viewBox="0 0 207 103" version="1.1" xmlns="http://www.w3.org/2000/svg" xmlns:xlink="http://www.w3.org/1999/xlink">
    <title>Desktop_logo</title>
    <g id="Page-1" stroke="none" stroke-width="1" fill="none" fill-rule="evenodd">
        <g id="Extra-Large-Copy" transform="translate(-786, -419)">
            <g id="Desktop_logo" transform="translate(787, 420.5)">
                <g id="Group-9" transform="translate(0, 12.5)">
                    <path d="M12.9800169,55.5450761 C16.5406057,47.7424436 10.8763831,43.8040951 6.12586,38.7457811 C4.73848086,40.6622666 5.02148515,43.2520813 5.22156259,45.4721368 C6.07922541,49.8809345 10.0506875,52.4714993 12.9800169,55.5450761 M6.4239077,19.3013575 C2.93045017,26.981737 8.51174595,31.3567839 13.4403455,36.3020326 C16.8318839,28.6842796 11.3820299,24.1562289 6.4239077,19.3013575 M5.72551707,38.7750319 C-0.824198689,32.980387 -1.89190522,24.0844146 6.33797218,19.2797945 C-0.580119247,14.0688517 -1.45940698,4.2601065 6.8161648,0 C2.25913768,9.85393385 13.7675398,14.8706218 18.1942533,21.8227331 C21.0306896,27.0567389 18.6968915,33.70078 13.4136434,36.3648466 C20.6218847,41.4683492 21.0974448,51.201905 13.0567383,55.7205805 C20.0297382,60.681767 20.7490016,70.7517063 12.6861061,75 C16.7519657,65.5261382 6.96039357,60.5310133 1.93119119,54.2357309 C-1.87911831,49.1766669 0.242379582,41.6393535 5.72551707,38.7750319" id="Fill-1" fill="#FDFDFD"></path>
                    <path d="M12.9800169,55.5450761 C16.5406057,47.7424436 10.8763831,43.8040951 6.12586,38.7457811 C4.73848086,40.6622666 5.02148515,43.2520813 5.22156259,45.4721368 C6.07922541,49.8809345 10.0506875,52.4714993 12.9800169,55.5450761 Z M6.4239077,19.3013575 C2.93045017,26.981737 8.51174595,31.3567839 13.4403455,36.3020326 C16.8318839,28.6842796 11.3820299,24.1562289 6.4239077,19.3013575 Z M5.72551707,38.7750319 C-0.824198689,32.980387 -1.89190522,24.0844146 6.33797218,19.2797945 C-0.580119247,14.0688517 -1.45940698,4.2601065 6.8161648,0 C2.25913768,9.85393385 13.7675398,14.8706218 18.1942533,21.8227331 C21.0306896,27.0567389 18.6968915,33.70078 13.4136434,36.3648466 C20.6218847,41.4683492 21.0974448,51.201905 13.0567383,55.7205805 C20.0297382,60.681767 20.7490016,70.7517063 12.6861061,75 C16.7519657,65.5261382 6.96039357,60.5310133 1.93119119,54.2357309 C-1.87911831,49.1766669 0.242379582,41.6393535 5.72551707,38.7750319 Z" id="Stroke-3" stroke="#000000"></path>
                    <path d="M6.34549354,18.9705882 C11.1201427,23.8802652 16.3686714,28.4762556 13.102216,36.1764706 C8.35490956,31.1730483 2.98143742,26.7374117 6.34549354,18.9705882 Z" id="Stroke-5" stroke="#000000"></path>
                    <path d="M13.0261144,55.5882353 C10.1691666,52.5219224 6.29398973,49.9350075 5.45790831,45.5362229 C5.26255361,43.3198028 4.98703929,40.7370044 6.34003107,38.8235294 C10.9735143,43.8654407 16.5006765,47.8147664 13.0261144,55.5882353 Z" id="Stroke-7" stroke="#000000"></path>
                </g>
                <g id="All-My-DNA" transform="translate(56.3797, 39.3623)" fill="#FFFFFF" fill-rule="nonzero">
                    <path d="M0,21.1376953 L3.45863342,21.1376953 L9.43336487,3.50784302 L10.3541565,3.50784302 L10.3541565,0 L7.68882751,0 L0,21.1376953 Z M3.73764038,15.4264069 L15.1982117,15.4264069 L14.2440033,12.7928925 L4.69184875,12.7928925 L3.73764038,15.4264069 Z M15.4653168,21.1376953 L18.9239502,21.1376953 L11.2470245,0 L9.50271606,0 L9.50271606,3.50784302 L15.4653168,21.1376953 Z" id="Shape"></path>
                    <polygon id="Path" points="21.3789618 21.1376953 24.5615637 21.1376953 24.5615637 0 21.3789618 0"></polygon>
                    <polygon id="Path" points="28.316499 21.1376953 31.4991009 21.1376953 31.4991009 0 28.316499 0"></polygon>
                    <polygon id="Path" points="41.9849861 21.1376953 44.9883735 21.1376953 44.9883735 5.55404663 46.498307 5.55404663 43.0671394 0.5859375 51.4586341 21.1376953 53.8866127 21.1376953 62.2778785 0.5859375 58.8467109 5.55404663 60.3566444 5.55404663 60.3566444 21.1376953 63.3602607 21.1376953 63.3602607 0 59.5560157 0 52.717942 16.853714 52.6273048 16.853714 45.7892311 0 41.9849861 0"></polygon>
                    <path d="M69.0851283,26.2806702 C70.0943446,26.2806702 70.9593272,26.1328506 71.6800761,25.8372116 C72.400825,25.5415726 73.0171275,25.0682449 73.5289836,24.4172287 C74.0408397,23.7662125 74.4863582,22.9089355 74.8655391,21.8453979 L80.6061244,5.73143005 L77.253921,5.73143005 L73.1617427,18.9518738 L73.7144923,18.2666016 L72.9392695,18.2666016 L73.4892726,18.9518738 L69.4064784,5.73143005 L65.9592891,5.73143005 L71.5733027,21.1495972 L71.3114619,21.8849945 C71.0516047,22.6226044 70.7001185,23.1200409 70.2570033,23.3773041 C69.8138881,23.6345673 69.2184138,23.7631989 68.4705806,23.7631989 C68.2552791,23.7631989 68.0580211,23.7511826 67.8788066,23.72715 C67.6995921,23.7031174 67.5481868,23.6795807 67.4245906,23.6565399 L67.4245906,26.1394501 C67.6228023,26.1740875 67.8723979,26.2062836 68.1733775,26.2360382 C68.4743571,26.2657928 68.7782741,26.2806702 69.0851283,26.2806702 Z" id="Path"></path>
                    <path d="M89.6725595,21.1376953 L97.1315897,21.1376953 C99.2383707,21.1376953 101.037077,20.7193375 102.527708,19.8826218 C104.018339,19.0459061 105.160497,17.8347397 105.954183,16.2491226 C106.747869,14.6635056 107.144712,12.7587128 107.144712,10.5347443 L107.144712,10.5054474 C107.144712,8.28147888 106.745847,6.38801575 105.948118,4.82505798 C105.150388,3.26210022 104.006208,2.06718445 102.515577,1.24031067 C101.024946,0.41343689 99.2302835,0 97.1315897,0 L89.6725595,0 L89.6725595,21.1376953 Z M92.9645669,18.2945251 L92.9645669,2.84317017 L96.826719,2.84317017 C98.3155191,2.84317017 99.5774209,3.13838959 100.612425,3.72882843 C101.647428,4.31926727 102.434667,5.18726349 102.974142,6.33281708 C103.513616,7.47837067 103.783354,8.87718201 103.783354,10.5292511 L103.783354,10.558548 C103.783354,12.2241974 103.515409,13.6318207 102.979521,14.7814178 C102.443632,15.931015 101.658643,16.8039322 100.624555,17.4001694 C99.5904672,17.9964066 98.3245218,18.2945251 96.826719,18.2945251 L92.9645669,18.2945251 Z" id="Shape"></path>
                    <polygon id="Path" points="110.663059 21.1376953 113.931034 21.1376953 113.931034 5.49797058 115.352848 5.49797058 111.881397 2.43095398 124.888523 21.1376953 127.919376 21.1376953 127.919376 0 124.651172 0 124.651172 15.6076813 123.229587 15.6076813 126.703784 18.674469 113.704441 0 110.663059 0"></polygon>
                    <path d="M130.637927,21.1376953 L134.09656,21.1376953 L140.071292,3.50784302 L140.992084,3.50784302 L140.992084,0 L138.326755,0 L130.637927,21.1376953 Z M134.375567,15.4264069 L145.836139,15.4264069 L144.88193,12.7928925 L135.329776,12.7928925 L134.375567,15.4264069 Z M146.103244,21.1376953 L149.561877,21.1376953 L141.884952,0 L140.140643,0 L140.140643,3.50784302 L146.103244,21.1376953 Z" id="Shape"></path>
                </g>
                <line x1="37.5" y1="5.25190642e-15" x2="37.5" y2="100" id="Line" stroke="#FFFFFF" stroke-width="3" stroke-linecap="square"></line>
            </g>
        </g>
    </g>
</svg>