<?xml version="1.0" encoding="UTF-8"?>
<svg width="183px" height="104px" viewBox="0 0 183 104" version="1.1" xmlns="http://www.w3.org/2000/svg" xmlns:xlink="http://www.w3.org/1999/xlink">
    <title>mobile_lockup@1.5x</title>
    <g id="Page-1" stroke="none" stroke-width="1" fill="none" fill-rule="evenodd">
        <g id="Extra-Small" transform="translate(-77, -208)">
            <g id="mobile_lockup" transform="translate(77, 208)">
                <rect id="Rectangle" fill="#000000" x="0" y="0" width="183" height="104"></rect>
                <g id="Group-9-Copy-2" transform="translate(2, 20)">
                    <path d="M11.249348,48.139066 C14.3351916,41.3767844 9.42619866,37.9635491 5.30907867,33.579677 C4.10668341,35.240631 4.35195379,37.4851371 4.52535425,39.4091852 C5.26866202,43.2301433 8.71059585,45.4752994 11.249348,48.139066 M5.56738668,16.7278432 C2.53972348,23.3841721 7.37684649,27.1758794 11.6482994,31.4617615 C14.5876327,24.859709 9.86442594,20.9353984 5.56738668,16.7278432 M4.96211479,33.6050276 C-0.71430553,28.5830021 -1.63965119,20.8731593 5.49290923,16.7091552 C-0.502770014,12.1930048 -1.26481938,3.6920923 5.90734283,0 C1.95791933,8.540076 11.9318678,12.8878722 15.7683529,18.9130353 C18.2265977,23.4491737 16.2039726,29.2073427 11.6251576,31.5162004 C17.8723001,35.939236 18.2844521,44.3749844 11.3158399,48.2911698 C17.3591065,52.5908648 17.9824681,61.3181455 10.9946253,65 C14.5183703,56.7893197 6.03234109,52.4602115 1.67369903,47.0043001 C-1.6285692,42.619778 0.210062305,36.0874397 4.96211479,33.6050276" id="Fill-1" fill="#FDFDFD"></path>
                    <path d="M11.249348,48.139066 C14.3351916,41.3767844 9.42619866,37.9635491 5.30907867,33.579677 C4.10668341,35.240631 4.35195379,37.4851371 4.52535425,39.4091852 C5.26866202,43.2301433 8.71059585,45.4752994 11.249348,48.139066 Z M5.56738668,16.7278432 C2.53972348,23.3841721 7.37684649,27.1758794 11.6482994,31.4617615 C14.5876327,24.859709 9.86442594,20.9353984 5.56738668,16.7278432 Z M4.96211479,33.6050276 C-0.71430553,28.5830021 -1.63965119,20.8731593 5.49290923,16.7091552 C-0.502770014,12.1930048 -1.26481938,3.6920923 5.90734283,0 C1.95791933,8.540076 11.9318678,12.8878722 15.7683529,18.9130353 C18.2265977,23.4491737 16.2039726,29.2073427 11.6251576,31.5162004 C17.8723001,35.939236 18.2844521,44.3749844 11.3158399,48.2911698 C17.3591065,52.5908648 17.9824681,61.3181455 10.9946253,65 C14.5183703,56.7893197 6.03234109,52.4602115 1.67369903,47.0043001 C-1.6285692,42.619778 0.210062305,36.0874397 4.96211479,33.6050276 Z" id="Stroke-3" stroke="#000000"></path>
                    <path d="M5.49942774,16.4411765 C9.637457,20.6962298 14.1861819,24.6794216 11.3552539,31.3529412 C7.24092162,27.0166418 2.58391243,23.1724235 5.49942774,16.4411765 Z" id="Stroke-5" stroke="#000000"></path>
                    <path d="M11.2892991,48.1764706 C8.8132777,45.5189994 5.4547911,43.2770065 4.7301872,39.4647265 C4.5608798,37.5438291 4.32210072,35.3054039 5.49469359,33.6470588 C9.51037907,38.0167153 14.3005863,41.4394642 11.2892991,48.1764706 Z" id="Stroke-7" stroke="#000000"></path>
                </g>
                <g id="All-My-DNA-Copy-2" transform="translate(32.3797, 42.8623)" fill="#FFFFFF" fill-rule="nonzero">
                    <path d="M0,21.1376953 L3.45863342,21.1376953 L9.43336487,3.50784302 L10.3541565,3.50784302 L10.3541565,0 L7.68882751,0 L0,21.1376953 Z M3.73764038,15.4264069 L15.1982117,15.4264069 L14.2440033,12.7928925 L4.69184875,12.7928925 L3.73764038,15.4264069 Z M15.4653168,21.1376953 L18.9239502,21.1376953 L11.2470245,0 L9.50271606,0 L9.50271606,3.50784302 L15.4653168,21.1376953 Z" id="Shape"></path>
                    <polygon id="Path" points="21.3789618 21.1376953 24.5615637 21.1376953 24.5615637 0 21.3789618 0"></polygon>
                    <polygon id="Path" points="28.316499 21.1376953 31.4991009 21.1376953 31.4991009 0 28.316499 0"></polygon>
                    <polygon id="Path" points="41.9849861 21.1376953 44.9883735 21.1376953 44.9883735 5.55404663 46.498307 5.55404663 43.0671394 0.5859375 51.4586341 21.1376953 53.8866127 21.1376953 62.2778785 0.5859375 58.8467109 5.55404663 60.3566444 5.55404663 60.3566444 21.1376953 63.3602607 21.1376953 63.3602607 0 59.5560157 0 52.717942 16.853714 52.6273048 16.853714 45.7892311 0 41.9849861 0"></polygon>
                    <path d="M69.0851283,26.2806702 C70.0943446,26.2806702 70.9593272,26.1328506 71.6800761,25.8372116 C72.400825,25.5415726 73.0171275,25.0682449 73.5289836,24.4172287 C74.0408397,23.7662125 74.4863582,22.9089355 74.8655391,21.8453979 L80.6061244,5.73143005 L77.253921,5.73143005 L73.1617427,18.9518738 L73.7144923,18.2666016 L72.9392695,18.2666016 L73.4892726,18.9518738 L69.4064784,5.73143005 L65.9592891,5.73143005 L71.5733027,21.1495972 L71.3114619,21.8849945 C71.0516047,22.6226044 70.7001185,23.1200409 70.2570033,23.3773041 C69.8138881,23.6345673 69.2184138,23.7631989 68.4705806,23.7631989 C68.2552791,23.7631989 68.0580211,23.7511826 67.8788066,23.72715 C67.6995921,23.7031174 67.5481868,23.6795807 67.4245906,23.6565399 L67.4245906,26.1394501 C67.6228023,26.1740875 67.8723979,26.2062836 68.1733775,26.2360382 C68.4743571,26.2657928 68.7782741,26.2806702 69.0851283,26.2806702 Z" id="Path"></path>
                    <path d="M89.6725595,21.1376953 L97.1315897,21.1376953 C99.2383707,21.1376953 101.037077,20.7193375 102.527708,19.8826218 C104.018339,19.0459061 105.160497,17.8347397 105.954183,16.2491226 C106.747869,14.6635056 107.144712,12.7587128 107.144712,10.5347443 L107.144712,10.5054474 C107.144712,8.28147888 106.745847,6.38801575 105.948118,4.82505798 C105.150388,3.26210022 104.006208,2.06718445 102.515577,1.24031067 C101.024946,0.41343689 99.2302835,0 97.1315897,0 L89.6725595,0 L89.6725595,21.1376953 Z M92.9645669,18.2945251 L92.9645669,2.84317017 L96.826719,2.84317017 C98.3155191,2.84317017 99.5774209,3.13838959 100.612425,3.72882843 C101.647428,4.31926727 102.434667,5.18726349 102.974142,6.33281708 C103.513616,7.47837067 103.783354,8.87718201 103.783354,10.5292511 L103.783354,10.558548 C103.783354,12.2241974 103.515409,13.6318207 102.979521,14.7814178 C102.443632,15.931015 101.658643,16.8039322 100.624555,17.4001694 C99.5904672,17.9964066 98.3245218,18.2945251 96.826719,18.2945251 L92.9645669,18.2945251 Z" id="Shape"></path>
                    <polygon id="Path" points="110.663059 21.1376953 113.931034 21.1376953 113.931034 5.49797058 115.352848 5.49797058 111.881397 2.43095398 124.888523 21.1376953 127.919376 21.1376953 127.919376 0 124.651172 0 124.651172 15.6076813 123.229587 15.6076813 126.703784 18.674469 113.704441 0 110.663059 0"></polygon>
                    <path d="M130.637927,21.1376953 L134.09656,21.1376953 L140.071292,3.50784302 L140.992084,3.50784302 L140.992084,0 L138.326755,0 L130.637927,21.1376953 Z M134.375567,15.4264069 L145.836139,15.4264069 L144.88193,12.7928925 L135.329776,12.7928925 L134.375567,15.4264069 Z M146.103244,21.1376953 L149.561877,21.1376953 L141.884952,0 L140.140643,0 L140.140643,3.50784302 L146.103244,21.1376953 Z" id="Shape"></path>
                </g>
                <line x1="25.5" y1="2.5" x2="25.5" y2="102.5" id="Line-Copy-2" stroke="#FFFFFF" stroke-width="2" stroke-linecap="square"></line>
            </g>
        </g>
    </g>
</svg>