<?xml version="1.0" encoding="UTF-8"?>
<svg width="183px" height="104px" viewBox="0 0 183 104" version="1.1" xmlns="http://www.w3.org/2000/svg" xmlns:xlink="http://www.w3.org/1999/xlink">
    <title>mobile_lockup@1.5x</title>
    <g id="Page-1" stroke="none" stroke-width="1" fill="none" fill-rule="evenodd">
        <g id="Extra-Small" transform="translate(-77, -208)">
            <g id="mobile_lockup" transform="translate(77, 208)">
                <rect id="Rectangle" fill="#000000" x="0" y="0" width="183" height="104"></rect>
                <g id="Group-9-Copy-2" transform="translate(2, 20)">
                    <path d="M11.249348,48.139066 C14.3351916,41.3767844 9.42619866,37.9635491 5.30907867,33.579677 C4.10668341,35.240631 4.35195379,37.4851371 4.52535425,39.4091852 C5.26866202,43.2301433 8.71059585,45.4752994 11.249348,48.139066 M5.56738668,16.7278432 C2.53972348,23.3841721 7.37684649,27.1758794 11.6482994,31.4617615 C14.5876327,24.859709 9.86442594,20.9353984 5.56738668,16.7278432 M4.96211479,33.6050276 C-0.71430553,28.5830021 -1.63965119,20.8731593 5.49290923,16.7091552 C-0.502770014,12.1930048 -1.26481938,3.6920923 5.90734283,0 C1.95791933,8.540076 11.9318678,12.8878722 15.7683529,18.9130353 C18.2265977,23.4491737 16.2039726,29.2073427 11.6251576,31.5162004 C17.8723001,35.939236 18.2844521,44.3749844 11.3158399,48.2911698 C17.3591065,52.5908648 17.9824681,61.3181455 10.9946253,65 C14.5183703,56.7893197 6.03234109,52.4602115 1.67369903,47.0043001 C-1.6285692,42.619778 0.210062305,36.0874397 4.96211479,33.6050276" id="Fill-1" fill="#FDFDFD"></path>
                    <path d="M11.249348,48.139066 C14.3351916,41.3767844 9.42619866,37.9635491 5.30907867,33.579677 C4.10668341,35.240631 4.35195379,37.4851371 4.52535425,39.4091852 C5.26866202,43.2301433 8.71059585,45.4752994 11.249348,48.139066 Z M5.56738668,16.7278432 C2.53972348,23.3841721 7.37684649,27.1758794 11.6482994,31.4617615 C14.5876327,24.859709 9.86442594,20.9353984 5.56738668,16.7278432 Z M4.96211479,33.6050276 C-0.71430553,28.5830021 -1.63965119,20.8731593 5.49290923,16.7091552 C-0.502770014,12.1930048 -1.26481938,3.6920923 5.90734283,0 C1.95791933,8.540076 11.9318678,12.8878722 15.7683529,18.9130353 C18.2265977,23.4491737 16.2039726,29.2073427 11.6251576,31.5162004 C17.8723001,35.939236 18.2844521,44.3749844 11.3158399,48.2911698 C17.3591065,52.5908648 17.9824681,61.3181455 10.9946253,65 C14.5183703,56.7893197 6.03234109,52.4602115 1.67369903,47.0043001 C-1.6285692,42.619778 0.210062305,36.0874397 4.96211479,33.6050276 Z" id="Stroke-3" stroke="#000000"></path>
                    <path d="M5.49942774,16.4411765 C9.637457,20.6962298 14.1861819,24.6794216 11.3552539,31.3529412 C7.24092162,27.0166418 2.58391243,23.1724235 5.49942774,16.4411765 Z" id="Stroke-5" stroke="#000000"></path>
                    <path d="M11.2892991,48.1764706 C8.8132777,45.5189994 5.4547911,43.2770065 4.7301872,39.4647265 C4.5608798,37.5438291 4.32210072,35.3054039 5.49469359,33.6470588 C9.51037907,38.0167153 14.3005863,41.4394642 11.2892991,48.1764706 Z" id="Stroke-7" stroke="#000000"></path>
                </g>
                <text id="All-My-DNA-Copy-2" font-family="SFPro-Medium, SF Pro" font-size="30" font-weight="400" fill="#FFFFFF">
                    <tspan x="32" y="64">All My DNA</tspan>
                </text>
                <line x1="25.5" y1="2.5" x2="25.5" y2="102.5" id="Line-Copy-2" stroke="#979797" stroke-width="2" stroke-linecap="square"></line>
            </g>
        </g>
    </g>
</svg>